<svg width="215" height="40" viewBox="0 0 215 40" fill="none" xmlns="http://www.w3.org/2000/svg">
<g clip-path="url(#clip0_123_52)">
<path d="M5.9234 27.9971L8.63916 24.6893C6.94549 30.701 12.8453 31.785 14.8012 28.0854C15.0309 27.6495 15.5994 26.8365 15.7997 25.6996L18.1237 12.5803C18.1119 12.0177 17.5582 11.8027 16.9985 11.8203L12.2504 11.7938V9.23712H32.8954V11.7938H22.0088C21.4344 11.8969 21.0633 12.1767 20.9308 12.6598L18.106 26.1767C16.5685 33.5346 7.49041 33.408 5.92635 27.9971H5.9234Z" fill="#E30613"/>
<path d="M5.9234 27.9971L8.63916 24.6893C6.94549 30.701 12.8453 31.785 14.8012 28.0854C15.0309 27.6495 15.5994 26.8365 15.7997 25.6996L18.1237 12.5803C18.1119 12.0177 17.5582 11.8027 16.9985 11.8203L12.2504 11.7938V9.23712H32.8954V11.7938H22.0088C21.4344 11.8969 21.0633 12.1767 20.9308 12.6598L18.106 26.1767C16.5685 33.5346 7.49041 33.408 5.92635 27.9971H5.9234Z" stroke="#E30613" stroke-width="0.02" stroke-miterlimit="2.61"/>
<path fill-rule="evenodd" clip-rule="evenodd" d="M29.1222 21.6848L30.1797 20.2268C22.1414 20.1826 28.4595 12.0294 30.9102 16.1414C31.1635 16.7305 30.8424 17.2607 30.4359 17.782L30.8188 17.8291C33.2842 16.3387 35.1782 14.0206 31.785 13.1487C28.8807 12.5272 21.243 17.2665 24.0884 20.4801L24.7452 21.2459C11.4521 27.6377 25.6937 35.9587 30.3976 24.3093L29.0839 24.4182C27.5199 30.916 16.2121 26.6627 26.4948 21.6288L29.1222 21.6848Z" fill="#E30613"/>
<path d="M29.1222 21.6848L30.1797 20.2268C22.1414 20.1826 28.4595 12.0294 30.9102 16.1414C31.1635 16.7305 30.8424 17.2607 30.4359 17.782L30.8188 17.8291C33.2842 16.3387 35.1782 14.0206 31.785 13.1487C28.8807 12.5272 21.243 17.2665 24.0884 20.4801L24.7452 21.2459C11.4521 27.6377 25.6937 35.9587 30.3976 24.3093L29.0839 24.4182C27.5199 30.916 16.2121 26.6627 26.4948 21.6288L29.1222 21.6848V21.6848Z" stroke="#E30613" stroke-width="0.04" stroke-miterlimit="2.61"/>
<path fill-rule="evenodd" clip-rule="evenodd" d="M20 1.34024C30.3064 1.34024 38.6628 9.69664 38.6628 20.003C38.6628 30.3093 30.3064 38.6657 20 38.6657C9.6937 38.6657 1.34024 30.3064 1.34024 20C1.34024 9.6937 9.6937 1.34024 20 1.34024ZM20 0.00592041C31.0427 0.00592041 39.9941 8.95732 39.9941 20C39.9941 31.0427 31.0427 39.9941 20 39.9941C8.95732 39.9941 0.00592041 31.0427 0.00592041 20C0.00592041 8.95732 8.95732 0.00592041 20 0.00592041Z" fill="#E30613"/>
<path d="M20 1.34024C30.3064 1.34024 38.6628 9.69664 38.6628 20.003C38.6628 30.3093 30.3064 38.6657 20 38.6657C9.6937 38.6657 1.34024 30.3064 1.34024 20C1.34024 9.6937 9.6937 1.34024 20 1.34024ZM20 0.00592041C31.0427 0.00592041 39.9941 8.95732 39.9941 20C39.9941 31.0427 31.0427 39.9941 20 39.9941C8.95732 39.9941 0.00592041 31.0427 0.00592041 20C0.00592041 8.95732 8.95732 0.00592041 20 0.00592041Z" stroke="#E30613" stroke-width="0.04" stroke-miterlimit="2.61"/>
<path d="M54.5508 3.02209C54.6186 2.19146 55.137 1.77908 56.1061 1.77908C57.0044 1.98527 57.6613 2.05596 58.0766 1.98527C58.2828 1.98527 58.4566 1.84683 58.595 1.56995V1.46686C58.595 0.636228 58.7658 0.259203 59.1134 0.326949C60.4949 0.326949 61.1164 0.742266 60.9809 1.56995C60.9809 1.84683 61.1193 1.98527 61.3962 1.98527H64.922C65.1988 1.98527 65.3373 2.12371 65.3373 2.40059C65.1988 2.8159 64.9897 3.02209 64.7158 3.02209H61.3991C61.1223 3.02209 60.9838 3.16053 60.9838 3.43741C60.9838 3.71428 61.1223 3.85272 61.3991 3.85272H63.4728C64.162 3.57584 64.7158 3.57584 65.1311 3.85272C65.2695 3.78498 65.3402 4.20029 65.3402 5.09573C65.3402 5.51104 65.4787 5.71723 65.7555 5.71723H66.7924C67.137 6.0648 67.0692 6.33873 66.5832 6.54786H65.7526C65.405 6.54786 65.2342 6.78939 65.2342 7.27246C65.2342 8.37702 64.7158 8.82769 63.679 8.61855C62.7806 8.48306 61.9499 8.41237 61.19 8.41237C60.9131 8.41237 60.7747 8.55081 60.7747 8.82769C60.7747 9.10456 60.9131 9.243 61.19 9.243H64.3005C64.7835 9.243 65.0604 9.48748 65.1311 9.9676C65.0604 10.4507 64.7835 10.6922 64.3005 10.6922H61.19C60.9131 10.6922 60.7747 10.8306 60.7747 11.1075C60.9838 11.729 61.8792 12.215 63.4698 12.5596C65.3373 12.975 67.2695 13.1811 69.2754 13.1811C69.5523 13.1811 69.6907 13.2165 69.6907 13.2842C69.7585 13.3549 69.7585 13.4904 69.6907 13.6996C69.2754 15.0133 68.4477 15.947 67.2018 16.4978C66.3034 16.9131 65.1281 16.6362 63.676 15.6672C62.9161 15.1841 61.4993 14.2504 59.4256 12.8689C58.3888 12.3181 57.5935 12.2828 57.0398 12.7658C56.6245 13.1134 56.003 13.5287 55.1753 14.0088L55.0722 14.1119C53.4139 15.0103 52.4801 14.9426 52.2739 13.9057C52.2033 14.7364 51.9971 15.5287 51.6524 16.2887C51.0309 17.3255 49.8881 17.6701 48.2298 17.3255C46.1561 16.4948 44.8778 15.2518 44.3947 13.5935C44.3947 13.4551 44.5302 13.3873 44.81 13.3873C46.813 14.2857 48.1944 14.4948 48.9573 14.0088C49.6466 13.8704 49.9234 12.6274 49.7879 10.2769C49.7879 10.1384 49.6848 10.0677 49.4787 10.0677C47.3343 11.0368 46.2651 10.8984 46.2651 9.65243C46.2651 9.23711 46.4713 8.96318 46.8866 8.82179C47.8527 8.54492 48.7541 8.26804 49.5818 7.99116C49.7202 7.99116 49.7879 7.88807 49.7879 7.67894V6.02062C49.7879 5.88218 49.6495 5.77908 49.3726 5.70839C48.2651 5.98527 47.4374 6.12371 46.8837 6.12371C46.4684 6.12371 46.1915 5.98527 46.053 5.70839C45.9823 5.36377 46.1208 5.01914 46.4684 4.67157C47.0221 4.11782 47.5405 3.94698 48.0236 4.15316C48.8542 4.2916 49.3019 4.32695 49.3726 4.25626C49.6466 4.11782 49.7879 4.01473 49.7879 3.94698V3.6377C49.6495 3.08395 49.5818 2.56554 49.5818 2.08247C49.5111 1.11635 49.9264 0.597936 50.8248 0.527244C51.514 0.527244 51.9647 1.04565 52.1709 2.08247C52.2386 2.63623 52.2739 3.29308 52.2739 4.05302C52.2739 4.19146 52.3417 4.2592 52.4801 4.2592H54.1385C54.4153 4.2592 54.5538 4.39764 54.5538 4.67452C54.5538 5.22827 54.2769 5.50515 53.7231 5.50515H52.5832C52.4448 5.50515 52.377 5.57584 52.377 5.71134V7.06038C52.377 7.26951 52.4448 7.3726 52.5832 7.3726C52.7217 7.3726 52.8925 7.33726 53.1016 7.26951H53.517C54 7.06038 54.2769 7.09867 54.3476 7.3726C54.5567 7.78792 54.3122 8.16789 53.623 8.51252C52.8631 8.78939 52.4477 9.10162 52.38 9.44624C52.38 11.3814 52.3446 12.6951 52.2769 13.3844C54.5567 12.7629 56.0089 11.5169 56.6304 9.65243C56.7688 9.23711 56.975 9.03093 57.2519 9.03093C57.5287 9.03093 57.6672 9.16936 57.6672 9.44624V10.2769C57.6672 10.5538 57.7349 10.7599 57.8734 10.8984C58.218 11.0368 58.4271 10.8984 58.4949 10.4831V9.03093C58.5626 8.54786 57.8027 8.54786 56.215 9.03093C55.3844 9.3785 54.9013 9.3785 54.7629 9.03093C54.9691 7.85567 55.5935 7.44035 56.6304 7.78792L58.0825 7.58174C58.3564 7.51399 58.4978 7.4109 58.4978 7.27246C58.4978 7.06333 58.3594 6.96023 58.0825 6.96023C56.9043 6.96023 56.1119 7.03093 55.6966 7.16642C54.866 7.30486 54.4183 7.26951 54.3476 7.06333C54.486 5.82032 55.1782 5.40501 56.4212 5.82032L58.0795 5.92341C58.6304 5.71428 58.701 5.36966 58.2857 4.8866C57.6642 4.8866 56.9367 4.95729 56.109 5.09573H56.0059C55.3137 5.16642 54.9691 5.09573 54.9691 4.8866C55.246 3.78203 55.9352 3.43446 57.0427 3.84978H58.0795C58.3535 3.84978 58.5273 3.71134 58.598 3.43446C58.5273 3.15758 58.3535 3.01914 58.0795 3.01914H57.0427C56.9043 3.01914 56.5921 3.05449 56.109 3.12224C56.4536 3.05449 56.3505 3.08689 55.7968 3.22533C55.243 3.29602 54.8277 3.22533 54.5538 3.01914L54.5508 3.02209ZM60.7717 5.30191C60.7717 5.57879 60.9102 5.71723 61.1871 5.71723H62.8454C63.1223 5.71723 63.296 5.57879 63.3638 5.30191C63.2931 5.02503 63.1193 4.8866 62.8454 4.8866H61.1871C60.9102 4.8866 60.7717 5.02503 60.7717 5.30191ZM60.9809 7.16642C61.0486 7.4433 61.1871 7.58174 61.3962 7.58174H62.8483C63.1252 7.58174 63.299 7.4433 63.3667 7.16642C63.296 6.89249 63.1223 6.7511 62.8483 6.7511H61.3962C61.19 6.7511 61.0486 6.8542 60.9809 7.06038V7.16347V7.16642Z" fill="#1D1D1B"/>
<path d="M92.0825 1.3608C92.5656 0.809994 93.0486 0.636209 93.5346 0.842395C94.0854 1.18996 94.1561 1.63768 93.7408 2.18849C94.0177 2.60381 94.6392 2.74225 95.6083 2.60381C96.5037 2.80999 96.7835 3.296 96.4389 4.05594C95.6083 5.09276 95.5405 5.57583 96.2327 5.50808H99.7556C100.309 5.50808 100.586 5.78496 100.586 6.33871C100.586 6.61559 100.448 6.75403 100.171 6.75403H95.8174C95.5405 6.75403 95.4021 6.89247 95.4021 7.16935C95.4021 7.7231 95.679 7.99998 96.2327 7.99998H98.7217C98.9986 7.99998 99.137 8.13842 99.137 8.4153C99.137 8.76287 98.9986 8.96905 98.7217 9.0368C97.8233 9.17524 96.7865 9.24298 95.6112 9.24298C95.4728 9.24298 95.4021 9.38142 95.4021 9.6583C95.4021 9.93518 95.6436 10.1414 96.1267 10.2798H99.3402C99.891 10.4182 99.9617 10.7629 99.5464 11.3166C99.1988 11.6642 98.0265 11.7997 96.0206 11.7319C95.7438 11.7319 95.6053 11.8704 95.6053 12.1473C95.5346 12.9101 95.6053 13.2548 95.8115 13.1841C97.4698 13.3225 99.5435 13.3225 102.032 13.1841H103.069C103.275 14.0147 102.792 14.8777 101.617 15.7761C100.786 16.1914 99.7143 16.1914 98.4036 15.7761C96.1208 15.0869 93.9441 14.7746 91.8704 14.8424C91.2489 14.9131 90.6922 15.19 90.2121 15.673C89.6583 16.5714 89.1046 16.9867 88.5538 16.916C87.7232 16.7776 87.3108 16.3652 87.3108 15.673C87.7938 12.6333 88 9.86743 87.9323 7.37848C87.9323 7.03385 87.8616 6.82472 87.7261 6.75697C86.6893 6.89541 85.9293 6.4801 85.4463 5.51397C85.5818 5.92929 85.5818 6.23856 85.4463 6.4477L85.3432 6.55079C85.2725 6.68923 85.2401 6.89836 85.2401 7.17229V9.66125C85.1017 10.5596 84.4095 10.8719 83.1664 10.595C82.8189 10.3888 82.4065 10.3181 81.9234 10.3888C81.6466 10.321 81.2312 10.4919 80.6804 10.9072C79.7821 11.2548 79.2283 11.1134 79.0221 10.4919C78.8837 9.24887 78.813 8.21206 78.813 7.38142C78.8807 6.62148 78.813 5.86154 78.6068 5.1016C78.5361 4.54784 78.9868 4.23857 79.9558 4.16787C80.2327 4.16787 80.4743 4.27097 80.6804 4.4801L80.7835 4.58319C80.922 4.65388 81.0928 4.68628 81.3019 4.68628H82.7541C83.031 4.68628 83.2725 4.61854 83.4787 4.4801C83.8233 4.27097 84.1355 4.23857 84.4124 4.377C84.6893 4.4477 84.9662 4.61854 85.243 4.89541L85.3461 4.99851C87.9028 4.51544 90.1502 3.30484 92.0854 1.36964L92.0825 1.3608ZM81.5081 9.03385C83.0987 9.17229 83.8586 8.75697 83.7879 7.79085C83.7879 7.37553 83.7173 7.03091 83.5818 6.75403C83.3756 6.33871 82.9603 6.13253 82.3388 6.13253C81.5081 6.20322 81.0251 6.54784 80.8866 7.16935C80.8159 8.34755 81.0251 8.96611 81.5081 9.0368V9.03385ZM90.218 9.44917C90.0796 10.0029 90.2857 10.3475 90.8395 10.486H92.0825C92.7717 10.486 93.1193 10.2091 93.1193 9.65535C93.1193 9.37848 92.9809 9.24004 92.704 9.24004H90.8366C90.5597 9.24004 90.3535 9.31073 90.215 9.44917H90.218ZM90.218 7.79085V7.89394C90.2857 8.10307 90.4242 8.20616 90.6333 8.20616H92.2916C92.8454 8.20616 93.1223 7.92929 93.1223 7.37553C93.1223 7.09865 92.9838 6.96021 92.7069 6.96021H91.0486C90.4949 6.96021 90.218 7.23709 90.218 7.79085ZM93.1223 12.5596C93.19 12.0766 93.1223 11.7997 92.9161 11.729H90.6363C90.3594 11.729 90.2209 11.8674 90.2209 12.1443C90.2209 12.8365 90.5656 13.1811 91.2578 13.1811C92.5008 13.2518 93.1223 13.0427 93.1223 12.5596ZM91.6701 5.71721C92.9809 5.57877 93.6731 5.23415 93.7438 4.68039C93.7438 4.12664 93.3285 3.78201 92.5008 3.64357C92.2946 3.64357 91.8793 3.84976 91.2578 4.26507C90.7747 4.68039 90.4949 5.02796 90.4271 5.30189C90.8424 5.57877 91.2578 5.71721 91.6701 5.71721Z" fill="#1D1D1B"/>
<path d="M111.882 6.85713C116.789 6.09719 120.489 3.99115 122.975 0.533121C123.39 0.117804 123.909 0.188497 124.53 0.739307C125.013 1.29306 125.049 1.81147 124.633 2.29453C127.744 4.15904 131.543 5.40499 136.038 6.02649C136.66 6.23268 136.831 6.648 136.557 7.2695C135.243 9.54932 133.446 9.86154 131.166 8.20322C129.508 7.09866 127.399 5.85271 124.842 4.47127C123.529 3.71132 122.492 3.71132 121.732 4.47127C117.446 8.06479 114.059 9.31073 111.573 8.20322C111.09 7.58172 111.193 7.134 111.882 6.85418V6.85713ZM122.353 13.2842C122.492 10.7953 122.56 8.55079 122.56 6.5449C122.56 5.71427 122.94 5.3019 123.7 5.3019C124.53 5.44034 124.978 5.9234 125.049 6.75403V8.10308C125.049 8.45065 125.219 8.62149 125.567 8.62149H129.196C129.54 8.69218 129.647 8.93371 129.508 9.34608C129.37 9.69365 129.093 9.86449 128.677 9.86449C128.33 9.93518 127.811 9.96758 127.122 9.96758C126.362 10.0383 125.809 10.0707 125.464 10.0707C125.187 10.0707 125.049 10.2091 125.049 10.486V13.1811C125.049 13.5287 125.29 13.6995 125.773 13.6995C128.468 13.6995 130.507 13.7349 131.891 13.8026C132.789 14.2857 132.789 14.8395 131.891 15.461C129.264 15.6671 126.533 15.7054 123.7 15.564C120.174 15.3579 117.72 15.5287 116.339 16.0825C115.647 16.3593 115.096 16.3593 114.68 16.0825C114.265 15.7378 114.265 15.3225 114.68 14.8395C115.511 13.8026 116.406 13.4227 117.376 13.6995C118.342 13.9764 118.86 13.6995 118.931 12.8689C119.069 11.4875 119.069 10.4182 118.931 9.65536C118.725 8.4801 118.966 7.92929 119.655 7.99704C120.415 8.06773 120.831 8.61854 120.898 9.65536C120.898 11.1752 120.863 12.3181 120.795 13.078C120.657 13.4256 120.931 13.5964 121.626 13.5964C122.109 13.5964 122.35 13.4934 122.35 13.2872L122.353 13.2842Z" fill="#1D1D1B"/>
<path d="M155.741 11.8351C155.741 12.1119 155.844 12.2504 156.05 12.2504H157.19C157.396 12.2504 157.499 12.1149 157.499 11.8351L157.396 2.19146C157.396 1.0869 157.776 0.533142 158.536 0.533142C159.779 0.603834 160.365 1.36378 160.297 2.81297C160.091 5.23417 159.95 8.23859 159.882 11.8321C159.882 12.0383 159.985 12.1797 160.191 12.2474C161.573 12.3181 164.58 12.3505 169.211 12.3505C169.832 12.4212 170.003 12.7305 169.729 13.2842C168.551 15.5641 166.583 16.2916 163.817 15.461C157.043 13.8704 151.202 14.0442 146.295 15.9794C145.602 16.2563 145.084 16.2239 144.739 15.8763C144.392 15.5317 144.392 15.0457 144.739 14.4242C145.499 13.0427 146.742 12.4212 148.471 12.5567C151.096 12.5567 152.619 12.4536 153.034 12.2445C153.311 12.1767 153.449 12.0383 153.449 11.8292C153.311 7.61414 153.137 4.53609 152.931 2.60089C152.792 1.49632 153.346 0.942568 154.589 0.942568C155.487 1.01326 155.867 1.63476 155.729 2.80707C155.591 3.84389 155.591 6.09132 155.729 9.5464V11.8262L155.741 11.8351ZM151.284 10.9013C149.211 9.86451 147.932 8.24154 147.446 6.02946C147.169 4.71871 147.411 3.95582 148.171 3.74964C149.208 3.47276 149.864 3.88808 150.141 4.99264C150.763 7.41385 151.384 9.13992 152.009 10.1767C152.215 10.5243 152.25 10.7658 152.112 10.9013C151.973 11.0398 151.697 11.0398 151.281 10.9013H151.284ZM160.513 10.3829C161.756 8.37998 162.757 6.61562 163.52 5.09573C163.865 4.40649 164.383 4.16201 165.075 4.37114C165.906 4.92489 166.112 5.75553 165.697 6.86009C164.866 8.45067 163.314 9.79971 161.031 10.9043C160.754 10.975 160.548 10.975 160.409 10.9043C160.339 10.7658 160.374 10.5921 160.513 10.3859V10.3829Z" fill="#1D1D1B"/>
<path d="M49.3284 25.4728H51.6583V32.8012C51.6583 33.7585 51.5729 34.4978 51.405 35.0133C51.1782 35.6878 50.7688 36.2298 50.1738 36.6363C49.5788 37.0457 48.7953 37.2489 47.8203 37.2489C46.6775 37.2489 45.7997 36.9279 45.1811 36.2887C44.5655 35.6495 44.2533 34.7099 44.2504 33.4728L46.4536 33.2195C46.4801 33.8822 46.5773 34.3505 46.7452 34.6245C46.9985 35.0398 47.3814 35.2489 47.8969 35.2489C48.4124 35.2489 48.7864 35.1016 49.0015 34.8041C49.2165 34.5067 49.3255 33.8881 49.3255 32.9514V25.4728H49.3284Z" fill="#1D1D1B"/>
<path d="M54.0766 37.0486V25.4698H56.4153V37.0486H54.0766Z" fill="#1D1D1B"/>
<path d="M58.6421 37.0486V25.4698H67.2282V27.4286H60.9808V29.9941H66.7953V31.944H60.9808V35.0957H67.4492V37.0456H58.6421V37.0486Z" fill="#1D1D1B"/>
<path d="M75.567 37.0486L72.8041 25.4698H75.1959L76.9426 33.4227L79.0604 25.4698H81.841L83.8704 33.5582L85.6466 25.4698H88L85.1871 37.0486H82.7069L80.4006 28.3917L78.1031 37.0486H75.567Z" fill="#1D1D1B"/>
<path d="M98.7423 37.0486H96.2003L95.19 34.4182H90.5626L89.6082 37.0486H87.1281L91.6377 25.4698H94.109L98.7452 37.0486H98.7423ZM94.4389 32.4683L92.8424 28.1708L91.2783 32.4683H94.4389Z" fill="#1D1D1B"/>
<path d="M101.535 37.0486V32.1768L97.2931 25.4728H100.032L102.757 30.053L105.426 25.4728H108.118L103.862 32.1944V37.0516H101.532L101.535 37.0486Z" fill="#1D1D1B"/>
<path d="M113.502 37.0486V25.4698H122.088V27.4286H115.841V29.9941H121.655V31.944H115.841V35.0957H122.309V37.0456H113.502V37.0486Z" fill="#1D1D1B"/>
<path d="M124.315 37.0486V25.4698H126.589L131.328 33.2017V25.4698H133.499V37.0486H131.155L126.486 29.4992V37.0486H124.315Z" fill="#1D1D1B"/>
<path d="M138.577 37.0486V27.4286H135.143V25.4698H144.345V27.4286H140.916V37.0486H138.577Z" fill="#1D1D1B"/>
<path d="M145.853 37.0486V25.4698H154.439V27.4286H148.191V29.9941H154.006V31.944H148.191V35.0957H154.66V37.0456H145.853V37.0486Z" fill="#1D1D1B"/>
<path d="M156.648 37.0486V25.4698H161.57C162.807 25.4698 163.705 25.5729 164.268 25.782C164.831 25.9911 165.278 26.3593 165.614 26.8925C165.95 27.4256 166.121 28.0324 166.121 28.7157C166.121 29.5847 165.865 30.3034 165.355 30.8689C164.845 31.4344 164.08 31.7908 163.063 31.9381C163.57 32.2327 163.985 32.5567 164.315 32.9101C164.645 33.2636 165.087 33.888 165.647 34.7894L167.06 37.0486H164.265L162.574 34.5302C161.973 33.6288 161.564 33.0633 161.343 32.8277C161.122 32.592 160.887 32.433 160.639 32.3446C160.392 32.2592 160 32.215 159.461 32.215H158.987V37.0486H156.648ZM158.987 30.3682H160.716C161.838 30.3682 162.539 30.321 162.816 30.2268C163.093 30.1325 163.314 29.9676 163.473 29.7378C163.632 29.5081 163.708 29.2165 163.708 28.8689C163.708 28.4801 163.605 28.1649 163.396 27.9234C163.187 27.6848 162.895 27.5316 162.515 27.4698C162.327 27.4433 161.758 27.4315 160.81 27.4315H158.987V30.3682Z" fill="#1D1D1B"/>
<path d="M168.321 37.0486V25.4698H172.074C173.496 25.4698 174.421 25.5287 174.854 25.6436C175.517 25.8174 176.074 26.1944 176.521 26.7776C176.969 27.3608 177.193 28.1119 177.193 29.0309C177.193 29.7408 177.063 30.3387 176.807 30.8247C176.551 31.3107 176.221 31.6907 175.823 31.9646C175.426 32.2415 175.022 32.4241 174.613 32.5154C174.056 32.6274 173.246 32.6804 172.188 32.6804H170.663V37.0486H168.324H168.321ZM170.66 27.4286V30.7128H171.938C172.86 30.7128 173.476 30.6509 173.785 30.5302C174.094 30.4094 174.339 30.2209 174.515 29.9617C174.692 29.7025 174.781 29.405 174.781 29.0604C174.781 28.6392 174.657 28.2916 174.409 28.0177C174.162 27.7437 173.85 27.5729 173.47 27.5051C173.19 27.4521 172.63 27.4256 171.788 27.4256H170.66V27.4286Z" fill="#1D1D1B"/>
<path d="M179.119 37.0486V25.4698H184.041C185.278 25.4698 186.177 25.5729 186.736 25.782C187.299 25.9911 187.747 26.3593 188.085 26.8925C188.424 27.4256 188.592 28.0324 188.592 28.7157C188.592 29.5847 188.336 30.3034 187.826 30.8689C187.317 31.4344 186.551 31.7908 185.535 31.9381C186.041 32.2327 186.457 32.5567 186.786 32.9101C187.116 33.2636 187.561 33.888 188.118 34.7894L189.532 37.0486H186.736L185.046 34.5302C184.445 33.6288 184.035 33.0633 183.814 32.8277C183.593 32.592 183.361 32.433 183.113 32.3446C182.866 32.2592 182.474 32.215 181.935 32.215H181.461V37.0486H179.125H179.119ZM181.455 30.3682H183.187C184.309 30.3682 185.01 30.321 185.287 30.2268C185.564 30.1325 185.785 29.9676 185.941 29.7378C186.097 29.5081 186.177 29.2165 186.177 28.8689C186.177 28.4801 186.074 28.1649 185.864 27.9234C185.658 27.6848 185.364 27.5316 184.984 27.4698C184.795 27.4433 184.227 27.4315 183.278 27.4315H181.452V30.3682H181.455Z" fill="#1D1D1B"/>
<path d="M190.722 37.0486V25.4698H193.06V37.0486H190.722Z" fill="#1D1D1B"/>
<path d="M194.692 33.2813L196.966 33.0604C197.102 33.8233 197.381 34.3859 197.8 34.7423C198.218 35.1016 198.783 35.2784 199.493 35.2784C200.247 35.2784 200.813 35.1193 201.196 34.8012C201.576 34.4831 201.767 34.109 201.767 33.6819C201.767 33.408 201.688 33.1753 201.526 32.9838C201.364 32.7924 201.084 32.6245 200.683 32.4831C200.409 32.3888 199.788 32.2209 198.813 31.9765C197.561 31.6672 196.68 31.2843 196.174 30.8306C195.464 30.1944 195.107 29.4168 195.107 28.5008C195.107 27.9117 195.275 27.3608 195.608 26.8454C195.944 26.3329 196.424 25.9411 197.054 25.6731C197.682 25.405 198.442 25.2695 199.331 25.2695C200.783 25.2695 201.879 25.5876 202.613 26.2239C203.346 26.8601 203.732 27.7114 203.77 28.7747L201.431 28.8778C201.331 28.2828 201.116 27.8557 200.786 27.5935C200.459 27.3314 199.965 27.2018 199.308 27.2018C198.651 27.2018 198.094 27.3402 197.711 27.62C197.464 27.7997 197.34 28.0383 197.34 28.3388C197.34 28.6127 197.455 28.8483 197.688 29.0427C197.982 29.2901 198.698 29.5494 199.835 29.8174C200.972 30.0854 201.814 30.3653 202.359 30.651C202.904 30.9396 203.331 31.3314 203.638 31.8292C203.944 32.327 204.1 32.9396 204.1 33.6731C204.1 34.3358 203.915 34.9573 203.546 35.5376C203.178 36.1178 202.657 36.5479 201.982 36.8277C201.308 37.1105 200.468 37.2519 199.464 37.2519C197.997 37.2519 196.875 36.9131 196.091 36.2386C195.308 35.5641 194.839 34.5744 194.686 33.2813H194.692Z" fill="#1D1D1B"/>
<path d="M206.074 37.0486V25.4698H214.66V27.4286H208.412V29.9941H214.227V31.944H208.412V35.0957H214.881V37.0456H206.074V37.0486Z" fill="#1D1D1B"/>
</g>
<defs>
<clipPath id="clip0_123_52">
<rect width="214.881" height="40" fill="white"/>
</clipPath>
</defs>
</svg>
